<svg width="17" height="20" viewBox="0 0 17 20" fill="none" xmlns="http://www.w3.org/2000/svg">
<path fill-rule="evenodd" clip-rule="evenodd" d="M2.94111 3.55788C2.69704 3.3138 2.30131 3.31381 2.05723 3.55788C1.81315 3.80196 1.81315 4.19769 2.05723 4.44177L7.61536 9.9999L2.05725 15.558C1.81317 15.8021 1.81317 16.1978 2.05725 16.4419C2.30132 16.686 2.69705 16.686 2.94113 16.4419L8.49924 10.8838L14.0572 16.4418C14.3013 16.6858 14.697 16.6858 14.9411 16.4418C15.1852 16.1977 15.1852 15.8019 14.9411 15.5579L9.38313 9.9999L14.9411 4.44191C15.1852 4.19783 15.1852 3.8021 14.9411 3.55802C14.697 3.31395 14.3013 3.31394 14.0572 3.55802L8.49924 9.11601L2.94111 3.55788Z" fill="white"/>
</svg>
