<?xml version="1.0" encoding="utf-8"?><svg viewBox="0 0 40 36" xmlns="http://www.w3.org/2000/svg" xmlns:xlink="http://www.w3.org/1999/xlink"><style>:root>svg{display:none}:root>svg:target{display:block}</style><svg fill="none" viewBox="0 0 24 24" id="arrow-left" xmlns="http://www.w3.org/2000/svg"><path d="m14 18-6-6 6-6" stroke="currentColor" stroke-width="1.25" stroke-linecap="round" stroke-linejoin="round"/></svg><svg fill="none" viewBox="0 0 24 24" id="arrow-right" xmlns="http://www.w3.org/2000/svg"><path d="m10 18 6-6-6-6" stroke="currentColor" stroke-width="1.25" stroke-linecap="round" stroke-linejoin="round"/></svg><svg fill="none" viewBox="0 0 40 36" id="btn-play" xmlns="http://www.w3.org/2000/svg"><path d="M7.538 2.74C7.538.293 9.264-.7 11.373.522l26.43 15.253c2.108 1.223 2.108 3.21 0 4.433L11.388 35.477c-2.108 1.222-3.835.229-3.835-2.216L7.538 2.739Z" fill="#fff"/></svg><svg fill="none" viewBox="0 0 17 20" id="cross" xmlns="http://www.w3.org/2000/svg"><path fill-rule="evenodd" clip-rule="evenodd" d="M2.941 3.558a.625.625 0 1 0-.884.884L7.615 10l-5.558 5.558a.625.625 0 0 0 .884.884L8.5 10.884l5.558 5.558a.625.625 0 0 0 .884-.884L9.383 10l5.558-5.558a.625.625 0 1 0-.884-.884L8.5 9.116 2.941 3.558Z" fill="currentColor"/></svg><svg fill="none" viewBox="0 0 24 25" id="dzen" xmlns="http://www.w3.org/2000/svg"><path d="M21.559 12.057h.004a.436.436 0 0 0 .435-.476 10.026 10.026 0 0 0-9.077-9.079.437.437 0 0 0-.476.44c.076 6.408.921 9.026 9.114 9.115Zm0 .886c-8.193.09-9.038 2.708-9.114 9.115a.436.436 0 0 0 .477.44 10.025 10.025 0 0 0 9.076-9.079.436.436 0 0 0-.44-.476ZM11.049 2.505a10.03 10.03 0 0 0-9.047 9.077.436.436 0 0 0 .435.476h.005c8.166-.094 9.009-2.71 9.086-9.114a.438.438 0 0 0-.479-.44ZM2.443 12.943c-.136-.016-.243.049-.326.14a.438.438 0 0 0-.114.335 10.03 10.03 0 0 0 9.089 9.08.437.437 0 0 0 .436-.442c-.077-6.403-.92-9.02-9.085-9.114Z" fill="#fff"/></svg><svg fill="none" viewBox="0 0 24 25" id="ok" xmlns="http://www.w3.org/2000/svg"><path d="M11.985 12.841c-2.825 0-5.173-2.346-5.173-5.122 0-2.872 2.348-5.219 5.174-5.219 2.922 0 5.173 2.346 5.173 5.219a5.142 5.142 0 0 1-5.157 5.123l-.017-.001Zm0-7.324c-1.196 0-2.106 1.005-2.106 2.203 0 1.196.91 2.106 2.107 2.106 1.245 0 2.107-.91 2.107-2.106.001-1.199-.862-2.203-2.108-2.203Zm2.06 11.586 2.923 2.825c.575.621.575 1.531 0 2.106-.622.621-1.58.621-2.06 0l-2.922-2.873-2.826 2.873c-.287.287-.67.43-1.103.43-.335 0-.718-.144-1.054-.43-.575-.575-.575-1.485 0-2.107l2.97-2.825a13.49 13.49 0 0 1-3.063-1.339c-.719-.383-.862-1.34-.479-2.059.48-.718 1.341-.909 2.108-.43a6.62 6.62 0 0 0 6.897 0c.767-.479 1.676-.288 2.107.43.432.719.24 1.675-.432 2.059-.909.575-1.963 1.006-3.065 1.341v-.001Z" fill="#fff"/></svg><svg fill="none" viewBox="0 0 24 25" id="vk" xmlns="http://www.w3.org/2000/svg"><path d="M12.893 18.98C6.06 18.98 2.163 14.295 2 6.5h3.423c.112 5.721 2.636 8.145 4.634 8.645V6.5h3.223v4.934c1.974-.212 4.048-2.46 4.747-4.934h3.223c-.537 3.048-2.785 5.297-4.384 6.221 1.599.75 4.16 2.71 5.134 6.259h-3.548c-.762-2.374-2.66-4.21-5.172-4.46v4.46h-.387Z" fill="#fff"/></svg><svg fill="none" viewBox="0 0 24 25" id="youtube" xmlns="http://www.w3.org/2000/svg"><path d="M22.552 6.921a2.754 2.754 0 0 0-1.936-1.94c-1.722-.473-8.608-.481-8.608-.481s-6.886-.008-8.608.444a2.814 2.814 0 0 0-1.942 1.954C1.004 8.62 1 12.19 1 12.19s-.004 3.587.446 5.29a2.754 2.754 0 0 0 1.938 1.94c1.74.473 8.607.481 8.607.481s6.887.008 8.608-.443a2.765 2.765 0 0 0 1.942-1.938c.456-1.72.459-5.288.459-5.288s.022-3.589-.448-5.31ZM9.805 15.496l.005-6.594 5.724 3.302-5.73 3.292Z" fill="#fff"/></svg></svg>