<svg width="89" height="90" viewBox="0 0 89 90" fill="none" xmlns="http://www.w3.org/2000/svg">
<circle cx="44.5" cy="45.4404" r="43.5" fill="white" stroke="#D9DEE2" stroke-width="2"/>
<path fill-rule="evenodd" clip-rule="evenodd" d="M56.8217 33.2818C56.4601 32.9202 55.8771 32.9202 55.5155 33.2818L44.5177 44.2796L39.5721 39.3333C39.2121 38.9732 38.6282 38.9732 38.2667 39.3333C37.9074 39.6949 37.9066 40.2779 38.2667 40.6395L43.8653 46.2366C44.2254 46.5967 44.81 46.5982 45.17 46.2366L56.8217 34.5865C57.1818 34.2264 57.1818 33.6418 56.8217 33.2818ZM49.4449 34.4373C49.875 34.7105 50.4459 34.5811 50.7177 34.1495C50.9894 33.7187 50.8608 33.1485 50.4307 32.8768C45.6427 29.8548 39.222 30.9045 35.6953 35.5517C31.9967 40.4302 32.9505 47.3708 37.8275 51.0703C45.4281 56.8325 56.4297 50.8685 55.5528 41.2462C55.5056 40.7377 55.0474 40.364 54.5488 40.4112C54.0426 40.4568 53.6665 40.9067 53.7137 41.4129C54.4445 49.4261 45.2789 54.4028 38.9434 49.5981C34.8801 46.516 34.0846 40.7324 37.1675 36.6676C40.1004 32.8007 45.4471 31.9154 49.4449 34.4373ZM63.0141 33.9265C63.177 46.9712 63.3178 58.2377 45.0147 69.7988C44.7133 69.9876 44.3289 69.9876 44.029 69.7988C25.7297 58.2408 25.8682 46.9659 26.0296 33.9113C26.0448 32.7055 26.0601 31.4853 26.0601 30.2484C26.0601 29.8769 26.2823 29.542 26.6241 29.3981L44.1629 22.0129C44.3928 21.9163 44.6494 21.9163 44.8792 22.0129L58.6318 27.8034C59.1023 28.0021 59.323 28.5425 59.1251 29.0122C58.9272 29.4811 58.3883 29.7034 57.9156 29.5054L44.5215 23.8657L27.9052 30.8619C27.9014 31.8964 27.8885 32.9202 27.8755 33.9326C27.724 46.3158 27.5908 57.0251 44.5215 67.9233C61.4559 57.0229 61.3219 46.3211 61.1674 33.9493C61.153 32.7314 61.137 31.4983 61.137 30.2484C61.137 29.7391 61.5503 29.325 62.0603 29.325C62.5695 29.325 62.9829 29.7391 62.9829 30.2484C62.9836 31.4906 62.9989 32.7162 63.0141 33.9265Z" fill="#7D7F81"/>
</svg>
