<svg width="90" height="91" viewBox="0 0 90 91" fill="none" xmlns="http://www.w3.org/2000/svg">
<circle cx="45" cy="45.9404" r="44" fill="white" stroke="#D9DEE2" stroke-width="2"/>
<path d="M66.161 52.9963C66.161 63.6754 59.5894 68.3617 54.5113 69.9418C53.4285 70.2789 52.7166 69.0163 53.3645 68.0856C55.5743 64.9096 58.1288 60.0644 58.1288 55.5064C58.1288 50.6103 54.002 44.8298 50.7796 41.2645C50.0429 40.4495 48.758 40.9889 48.7178 42.0868C48.5846 45.7244 48.0105 50.5912 45.5353 54.4055C45.137 55.0194 44.2913 55.0701 43.8373 54.4961C43.0639 53.5182 42.2906 52.3098 41.5172 51.3553C41.1005 50.8412 40.3476 50.8342 39.8671 51.289C37.9937 53.0629 35.3709 55.8292 35.3709 59.2715C35.3709 61.7547 36.5543 64.8453 37.7741 67.2387C38.3281 68.3255 37.3004 69.6004 36.2446 68.9892C31.6366 66.3218 26 60.7949 26 52.9963C26 45.0987 36.8191 34.1579 40.9501 23.8217C41.6018 22.1907 43.6109 21.4243 45.008 22.4886C53.4699 28.9346 66.161 41.3951 66.161 52.9963Z" stroke="#7D7F81" stroke-width="1.75"/>
</svg>
