<svg width="90" height="91" viewBox="0 0 90 91" fill="none" xmlns="http://www.w3.org/2000/svg">
<circle cx="45" cy="45.9404" r="44" fill="white" stroke="#D9DEE2" stroke-width="2"/>
<path fill-rule="evenodd" clip-rule="evenodd" d="M24.2578 59.221V24.3785C24.2578 23.7284 24.8293 23.165 25.4887 23.165H36.9189C37.6223 23.165 38.1938 23.7284 38.1938 24.3785V59.221C34.8087 55.7541 27.6429 55.7541 24.2578 59.221Z" stroke="#7D7F81" stroke-width="1.75" stroke-miterlimit="22.9256" stroke-linejoin="round"/>
<path d="M26.9304 65.9408C26.651 68.275 28.344 70.3907 30.712 70.6662C33.08 70.9417 35.2262 69.2728 35.5057 66.9385C35.7851 64.6042 34.0921 62.4886 31.7241 62.2131C29.3561 61.9375 27.2099 63.6065 26.9304 65.9408Z" stroke="#7D7F81" stroke-width="1.75" stroke-miterlimit="22.9256" stroke-linejoin="round"/>
<path d="M38.1941 45.4834H28.3906" stroke="#7D7F81" stroke-width="1.75" stroke-miterlimit="22.9256" stroke-linejoin="round"/>
<path d="M38.1941 34.3027H28.3906" stroke="#7D7F81" stroke-width="1.75" stroke-miterlimit="22.9256" stroke-linejoin="round"/>
<path d="M38.1494 40.8897L46.5022 26.5886C46.8539 26.0252 47.6012 25.8086 48.2167 26.1552L58.1081 31.789C58.7236 32.1357 58.8995 32.8724 58.5917 33.4358L40.919 63.6414C40.4794 61.9946 39.5122 60.4344 38.1934 59.221" stroke="#7D7F81" stroke-width="1.75" stroke-miterlimit="22.9256" stroke-linejoin="round"/>
<path d="M58.0202 43.273L64.6584 39.4594C65.2739 39.1127 66.0212 39.3294 66.3729 39.9361L72.088 49.6868C72.4397 50.2502 72.2199 51.0303 71.6484 51.377L41.0069 68.7982C41.4905 67.1948 41.4465 65.3313 40.9189 63.6412" stroke="#7D7F81" stroke-width="1.75" stroke-miterlimit="22.9256" stroke-linejoin="round"/>
<path d="M47.8654 51.724L42.2822 48.5171" stroke="#7D7F81" stroke-width="1.75" stroke-miterlimit="22.9256" stroke-linejoin="round"/>
<path d="M53.5363 42.0597L45.3594 37.3794" stroke="#7D7F81" stroke-width="1.75" stroke-miterlimit="22.9256" stroke-linejoin="round"/>
<path d="M63.8677 55.7546L60.043 49.1675" stroke="#7D7F81" stroke-width="1.75" stroke-miterlimit="22.9256" stroke-linejoin="round"/>
<path d="M54.855 60.9114L50.9863 54.3242" stroke="#7D7F81" stroke-width="1.75" stroke-miterlimit="22.9256" stroke-linejoin="round"/>
</svg>
