<svg width="203" height="45" viewBox="0 0 203 45" fill="none" xmlns="http://www.w3.org/2000/svg">
<path d="M22.2192 3.67378H10.6023V8.8921H22.2192C23.1028 8.8921 23.7102 8.77475 24.0415 8.54007C24.3866 8.30538 24.5592 7.89813 24.5592 7.31832V5.24756C24.5592 4.69536 24.3866 4.29501 24.0415 4.04652C23.7102 3.79803 23.1028 3.67378 22.2192 3.67378ZM22.2192 12.4952H10.6023V18.0656H22.2192C23.158 18.0656 23.7999 17.9206 24.1451 17.6307C24.504 17.327 24.6834 16.8162 24.6834 16.0983V14.4417C24.6834 13.7239 24.5109 13.22 24.1658 12.9301C23.8344 12.6402 23.1856 12.4952 22.2192 12.4952ZM5.59105 22V0.112077H24.3521C26.0778 0.112077 27.3271 0.450301 28.1002 1.12675C28.8733 1.78939 29.2598 2.86619 29.2598 4.35713V7.02841C29.2598 8.06379 28.9423 8.899 28.3073 9.53403C27.6722 10.1553 26.7335 10.5487 25.491 10.7144C26.7335 10.88 27.6999 11.3287 28.3901 12.0604C29.0804 12.792 29.4255 13.7446 29.4255 14.918V17.7135C29.4255 19.1769 28.894 20.2606 27.831 20.9646C26.768 21.6549 25.1528 22 22.9854 22H5.59105ZM44.3557 0.112077V17.8792H58.8717V0.112077H63.945V16.8231C63.945 18.811 63.5654 20.1708 62.8061 20.9025C62.0607 21.6342 60.6318 22 58.5197 22H44.687C42.5748 22 41.1391 21.6411 40.3798 20.9232C39.6343 20.1915 39.2616 18.8248 39.2616 16.8231V0.112077H44.3557ZM80.2626 17.8792H86.8476C90.3541 17.8792 92.839 17.3339 94.3024 16.2433C95.7657 15.1527 96.4974 13.3511 96.4974 10.8386C96.4974 8.61599 95.89 6.92487 94.6751 5.76525C93.4741 4.60562 91.6794 4.02581 89.2911 4.02581H80.2626V17.8792ZM75.1686 22V0.112077H89.2497C93.2808 0.112077 96.3731 1.05082 98.5267 2.92831C100.68 4.8058 101.757 7.47017 101.757 10.9214C101.757 12.9646 101.336 14.8007 100.494 16.4297C99.6656 18.0587 98.4784 19.3494 96.9322 20.302C95.9797 20.8818 94.7924 21.3166 93.3705 21.6066C92.6665 21.7308 91.8658 21.8274 90.9684 21.8965C90.0711 21.9655 89.0633 22 87.9451 22H75.1686ZM111.117 22V0.112077H133.523V3.83944H116.211V8.72643H126.316V12.4538H116.211V17.8792H133.73V22H111.117ZM159.593 3.90157H148.142V9.9896H159.593C160.463 9.9896 161.064 9.86535 161.395 9.61686C161.726 9.36837 161.892 8.9128 161.892 8.25016V5.6203C161.892 5.01287 161.726 4.57801 161.395 4.31572C161.064 4.03962 160.463 3.90157 159.593 3.90157ZM143.131 22V0.112077H161.851C163.59 0.112077 164.846 0.450301 165.619 1.12675C166.406 1.78939 166.8 2.86619 166.8 4.35713V9.49262C166.8 10.956 166.406 12.0327 165.619 12.723C164.832 13.3994 163.576 13.7377 161.851 13.7377H158.993L169.098 22H161.788L152.967 13.7377H148.142V22H143.131ZM181.212 13.2614H190.8L186.078 4.35713L181.212 13.2614ZM171.417 22L183.801 0.112077H188.708L201.257 22H195.542L192.912 17.2165H179.038L176.491 22H171.417Z" fill="#212121"/>
<path d="M13.2669 42L9.76986 37.463L10.5499 36.995L14.3719 42H13.2669ZM7.03986 42V32.9H7.97586V42H7.03986ZM7.68986 37.827V36.982H10.5369V37.827H7.68986ZM10.6279 37.554L9.74386 37.398L13.1369 32.9H14.1769L10.6279 37.554ZM16.2098 42L20.3698 32.9H21.3188L25.4788 42H24.4648L20.6428 33.459H21.0328L17.2108 42H16.2098ZM17.8478 39.569L18.1338 38.789H23.4248L23.7108 39.569H17.8478ZM34.0937 38.152C33.5737 38.386 33.0537 38.5637 32.5337 38.685C32.0224 38.8063 31.5284 38.867 31.0517 38.867C29.9857 38.867 29.1537 38.6113 28.5557 38.1C27.9664 37.58 27.6717 36.8477 27.6717 35.903V32.9H28.6207V35.799C28.6207 36.501 28.8417 37.047 29.2837 37.437C29.7344 37.827 30.354 38.022 31.1427 38.022C31.6107 38.022 32.096 37.9613 32.5987 37.84C33.1014 37.71 33.5997 37.528 34.0937 37.294V38.152ZM33.9247 42V32.9H34.8607V42H33.9247ZM40.6055 36.969H45.4155V37.788H40.6055V36.969ZM40.7095 41.168H46.1825V42H39.7475V32.9H45.9875V33.732H40.7095V41.168ZM54.0694 42.078C53.3848 42.078 52.7521 41.9653 52.1714 41.74C51.5908 41.506 51.0881 41.181 50.6634 40.765C50.2388 40.349 49.9051 39.8593 49.6624 39.296C49.4284 38.7327 49.3114 38.1173 49.3114 37.45C49.3114 36.7827 49.4284 36.1673 49.6624 35.604C49.9051 35.0407 50.2388 34.551 50.6634 34.135C51.0968 33.719 51.6038 33.3983 52.1844 33.173C52.7651 32.939 53.3978 32.822 54.0824 32.822C54.7411 32.822 55.3608 32.9347 55.9414 33.16C56.5221 33.3767 57.0118 33.706 57.4104 34.148L56.7994 34.759C56.4268 34.3777 56.0151 34.1047 55.5644 33.94C55.1138 33.7667 54.6284 33.68 54.1084 33.68C53.5624 33.68 53.0554 33.7753 52.5874 33.966C52.1194 34.148 51.7121 34.4123 51.3654 34.759C51.0188 35.097 50.7458 35.4957 50.5464 35.955C50.3558 36.4057 50.2604 36.904 50.2604 37.45C50.2604 37.996 50.3558 38.4987 50.5464 38.958C50.7458 39.4087 51.0188 39.8073 51.3654 40.154C51.7121 40.492 52.1194 40.7563 52.5874 40.947C53.0554 41.129 53.5624 41.22 54.1084 41.22C54.6284 41.22 55.1138 41.1333 55.5644 40.96C56.0151 40.7867 56.4268 40.5093 56.7994 40.128L57.4104 40.739C57.0118 41.181 56.5221 41.5147 55.9414 41.74C55.3608 41.9653 54.7368 42.078 54.0694 42.078ZM62.8898 42V33.472L63.1498 33.732H59.6918V32.9H67.0368V33.732H63.5918L63.8388 33.472V42H62.8898ZM70.5254 42V32.9H74.3084C75.2704 32.9 76.0244 33.0993 76.5704 33.498C77.1251 33.888 77.4024 34.4643 77.4024 35.227C77.4024 35.981 77.1381 36.553 76.6094 36.943C76.0807 37.3243 75.3874 37.515 74.5294 37.515L74.7504 37.19C75.7644 37.19 76.5357 37.3893 77.0644 37.788C77.5931 38.1867 77.8574 38.7717 77.8574 39.543C77.8574 40.323 77.5801 40.9297 77.0254 41.363C76.4794 41.7877 75.6561 42 74.5554 42H70.5254ZM71.4744 41.233H74.5554C75.3267 41.233 75.9117 41.09 76.3104 40.804C76.7091 40.518 76.9084 40.076 76.9084 39.478C76.9084 38.8887 76.7091 38.4553 76.3104 38.178C75.9117 37.9007 75.3267 37.762 74.5554 37.762H71.4744V41.233ZM71.4744 37.021H74.2564C74.9584 37.021 75.4957 36.8823 75.8684 36.605C76.2497 36.319 76.4404 35.8987 76.4404 35.344C76.4404 34.7893 76.2497 34.3733 75.8684 34.096C75.4957 33.81 74.9584 33.667 74.2564 33.667H71.4744V37.021ZM86.0537 42.078C85.369 42.078 84.732 41.9653 84.1427 41.74C83.562 41.506 83.055 41.181 82.6217 40.765C82.197 40.3403 81.8634 39.8507 81.6207 39.296C81.3867 38.7327 81.2697 38.1173 81.2697 37.45C81.2697 36.7827 81.3867 36.1717 81.6207 35.617C81.8634 35.0537 82.197 34.564 82.6217 34.148C83.055 33.7233 83.562 33.3983 84.1427 33.173C84.7234 32.939 85.3604 32.822 86.0537 32.822C86.7384 32.822 87.371 32.939 87.9517 33.173C88.5324 33.3983 89.035 33.719 89.4597 34.135C89.893 34.551 90.2267 35.0407 90.4607 35.604C90.7034 36.1673 90.8247 36.7827 90.8247 37.45C90.8247 38.1173 90.7034 38.7327 90.4607 39.296C90.2267 39.8593 89.893 40.349 89.4597 40.765C89.035 41.181 88.5324 41.506 87.9517 41.74C87.371 41.9653 86.7384 42.078 86.0537 42.078ZM86.0537 41.22C86.5997 41.22 87.1024 41.129 87.5617 40.947C88.0297 40.7563 88.4327 40.492 88.7707 40.154C89.1174 39.8073 89.386 39.4087 89.5767 38.958C89.7674 38.4987 89.8627 37.996 89.8627 37.45C89.8627 36.904 89.7674 36.4057 89.5767 35.955C89.386 35.4957 89.1174 35.097 88.7707 34.759C88.4327 34.4123 88.0297 34.148 87.5617 33.966C87.1024 33.7753 86.5997 33.68 86.0537 33.68C85.5077 33.68 85.0007 33.7753 84.5327 33.966C84.0647 34.148 83.6574 34.4123 83.3107 34.759C82.9727 35.097 82.704 35.4957 82.5047 35.955C82.314 36.4057 82.2187 36.904 82.2187 37.45C82.2187 37.9873 82.314 38.4857 82.5047 38.945C82.704 39.4043 82.9727 39.8073 83.3107 40.154C83.6574 40.492 84.0647 40.7563 84.5327 40.947C85.0007 41.129 85.5077 41.22 86.0537 41.22ZM104.101 42.078C103.416 42.078 102.783 41.9653 102.203 41.74C101.622 41.506 101.119 41.181 100.695 40.765C100.27 40.349 99.9363 39.8593 99.6937 39.296C99.4597 38.7327 99.3427 38.1173 99.3427 37.45C99.3427 36.7827 99.4597 36.1673 99.6937 35.604C99.9363 35.0407 100.27 34.551 100.695 34.135C101.128 33.719 101.635 33.3983 102.216 33.173C102.796 32.939 103.429 32.822 104.114 32.822C104.772 32.822 105.392 32.9347 105.973 33.16C106.553 33.3767 107.043 33.706 107.442 34.148L106.831 34.759C106.458 34.3777 106.046 34.1047 105.596 33.94C105.145 33.7667 104.66 33.68 104.14 33.68C103.594 33.68 103.087 33.7753 102.619 33.966C102.151 34.148 101.743 34.4123 101.397 34.759C101.05 35.097 100.777 35.4957 100.578 35.955C100.387 36.4057 100.292 36.904 100.292 37.45C100.292 37.996 100.387 38.4987 100.578 38.958C100.777 39.4087 101.05 39.8073 101.397 40.154C101.743 40.492 102.151 40.7563 102.619 40.947C103.087 41.129 103.594 41.22 104.14 41.22C104.66 41.22 105.145 41.1333 105.596 40.96C106.046 40.7867 106.458 40.5093 106.831 40.128L107.442 40.739C107.043 41.181 106.553 41.5147 105.973 41.74C105.392 41.9653 104.768 42.078 104.101 42.078ZM115.404 42V41.337L119.187 37.632C119.533 37.294 119.793 36.9993 119.967 36.748C120.14 36.488 120.257 36.2453 120.318 36.02C120.378 35.7947 120.409 35.5823 120.409 35.383C120.409 34.8543 120.227 34.4383 119.863 34.135C119.507 33.8317 118.979 33.68 118.277 33.68C117.739 33.68 117.263 33.7623 116.847 33.927C116.439 34.0917 116.088 34.3473 115.794 34.694L115.131 34.122C115.486 33.706 115.941 33.3853 116.496 33.16C117.05 32.9347 117.67 32.822 118.355 32.822C118.97 32.822 119.503 32.9217 119.954 33.121C120.404 33.3117 120.751 33.5933 120.994 33.966C121.245 34.3387 121.371 34.7763 121.371 35.279C121.371 35.5737 121.327 35.864 121.241 36.15C121.163 36.436 121.015 36.7393 120.799 37.06C120.591 37.372 120.283 37.7273 119.876 38.126L116.405 41.532L116.145 41.168H121.787V42H115.404ZM128.363 42.078C127.661 42.078 127.037 41.896 126.491 41.532C125.945 41.1593 125.516 40.6307 125.204 39.946C124.892 39.2527 124.736 38.4207 124.736 37.45C124.736 36.4793 124.892 35.6517 125.204 34.967C125.516 34.2737 125.945 33.745 126.491 33.381C127.037 33.0083 127.661 32.822 128.363 32.822C129.065 32.822 129.689 33.0083 130.235 33.381C130.781 33.745 131.21 34.2737 131.522 34.967C131.843 35.6517 132.003 36.4793 132.003 37.45C132.003 38.4207 131.843 39.2527 131.522 39.946C131.21 40.6307 130.781 41.1593 130.235 41.532C129.689 41.896 129.065 42.078 128.363 42.078ZM128.363 41.22C128.9 41.22 129.368 41.077 129.767 40.791C130.166 40.4963 130.478 40.0717 130.703 39.517C130.928 38.9537 131.041 38.2647 131.041 37.45C131.041 36.6353 130.928 35.9507 130.703 35.396C130.478 34.8327 130.166 34.408 129.767 34.122C129.368 33.8273 128.9 33.68 128.363 33.68C127.843 33.68 127.379 33.8273 126.972 34.122C126.565 34.408 126.248 34.8327 126.023 35.396C125.798 35.9507 125.685 36.6353 125.685 37.45C125.685 38.2647 125.798 38.9537 126.023 39.517C126.248 40.0717 126.565 40.4963 126.972 40.791C127.379 41.077 127.843 41.22 128.363 41.22ZM138.77 42.078C138.068 42.078 137.444 41.896 136.898 41.532C136.352 41.1593 135.923 40.6307 135.611 39.946C135.299 39.2527 135.143 38.4207 135.143 37.45C135.143 36.4793 135.299 35.6517 135.611 34.967C135.923 34.2737 136.352 33.745 136.898 33.381C137.444 33.0083 138.068 32.822 138.77 32.822C139.472 32.822 140.096 33.0083 140.642 33.381C141.188 33.745 141.617 34.2737 141.929 34.967C142.25 35.6517 142.41 36.4793 142.41 37.45C142.41 38.4207 142.25 39.2527 141.929 39.946C141.617 40.6307 141.188 41.1593 140.642 41.532C140.096 41.896 139.472 42.078 138.77 42.078ZM138.77 41.22C139.308 41.22 139.776 41.077 140.174 40.791C140.573 40.4963 140.885 40.0717 141.11 39.517C141.336 38.9537 141.448 38.2647 141.448 37.45C141.448 36.6353 141.336 35.9507 141.11 35.396C140.885 34.8327 140.573 34.408 140.174 34.122C139.776 33.8273 139.308 33.68 138.77 33.68C138.25 33.68 137.787 33.8273 137.379 34.122C136.972 34.408 136.656 34.8327 136.43 35.396C136.205 35.9507 136.092 36.6353 136.092 37.45C136.092 38.2647 136.205 38.9537 136.43 39.517C136.656 40.0717 136.972 40.4963 137.379 40.791C137.787 41.077 138.25 41.22 138.77 41.22ZM147.048 42L150.974 33.316L151.26 33.732H145.631L146.112 33.277V35.435H145.189V32.9H151.871V33.563L148.062 42H147.048ZM160.965 42V32.9H166.75V33.732H161.654L161.901 33.485L161.914 42H160.965ZM172.951 42.078C172.267 42.078 171.63 41.9653 171.04 41.74C170.46 41.506 169.953 41.181 169.519 40.765C169.095 40.3403 168.761 39.8507 168.518 39.296C168.284 38.7327 168.167 38.1173 168.167 37.45C168.167 36.7827 168.284 36.1717 168.518 35.617C168.761 35.0537 169.095 34.564 169.519 34.148C169.953 33.7233 170.46 33.3983 171.04 33.173C171.621 32.939 172.258 32.822 172.951 32.822C173.636 32.822 174.269 32.939 174.849 33.173C175.43 33.3983 175.933 33.719 176.357 34.135C176.791 34.551 177.124 35.0407 177.358 35.604C177.601 36.1673 177.722 36.7827 177.722 37.45C177.722 38.1173 177.601 38.7327 177.358 39.296C177.124 39.8593 176.791 40.349 176.357 40.765C175.933 41.181 175.43 41.506 174.849 41.74C174.269 41.9653 173.636 42.078 172.951 42.078ZM172.951 41.22C173.497 41.22 174 41.129 174.459 40.947C174.927 40.7563 175.33 40.492 175.668 40.154C176.015 39.8073 176.284 39.4087 176.474 38.958C176.665 38.4987 176.76 37.996 176.76 37.45C176.76 36.904 176.665 36.4057 176.474 35.955C176.284 35.4957 176.015 35.097 175.668 34.759C175.33 34.4123 174.927 34.148 174.459 33.966C174 33.7753 173.497 33.68 172.951 33.68C172.405 33.68 171.898 33.7753 171.43 33.966C170.962 34.148 170.555 34.4123 170.208 34.759C169.87 35.097 169.602 35.4957 169.402 35.955C169.212 36.4057 169.116 36.904 169.116 37.45C169.116 37.9873 169.212 38.4857 169.402 38.945C169.602 39.4043 169.87 39.8073 170.208 40.154C170.555 40.492 170.962 40.7563 171.43 40.947C171.898 41.129 172.405 41.22 172.951 41.22ZM187.609 41.545V33.732H183.254L183.176 35.942C183.15 36.6267 183.107 37.2853 183.046 37.918C182.994 38.542 182.907 39.1053 182.786 39.608C182.673 40.102 182.517 40.505 182.318 40.817C182.127 41.129 181.876 41.311 181.564 41.363L180.511 41.168C180.858 41.1853 181.144 41.0597 181.369 40.791C181.603 40.5223 181.781 40.1453 181.902 39.66C182.032 39.1747 182.127 38.607 182.188 37.957C182.249 37.307 182.292 36.605 182.318 35.851L182.422 32.9H188.558V41.545H187.609ZM180.173 44.041L180.186 41.168H189.923V44.041H189.026V42H181.083L181.07 44.041H180.173ZM192.346 42L196.506 32.9H197.455L201.615 42H200.601L196.779 33.459H197.169L193.347 42H192.346ZM193.984 39.569L194.27 38.789H199.561L199.847 39.569H193.984Z" fill="#212121"/>
</svg>
