<svg width="24" height="25" viewBox="0 0 24 25" fill="none" xmlns="http://www.w3.org/2000/svg">
<path fill-rule="evenodd" clip-rule="evenodd" d="M12.7518 4.69043C12.7518 4.27622 12.416 3.94043 12.0018 3.94043C11.5876 3.94043 11.2518 4.27622 11.2518 4.69043V12.1923H3.75C3.33579 12.1923 3 12.528 3 12.9423C3 13.3565 3.33579 13.6923 3.75 13.6923H11.2518V21.1941C11.2518 21.6083 11.5876 21.9441 12.0018 21.9441C12.416 21.9441 12.7518 21.6083 12.7518 21.1941V13.6923H20.2536C20.6678 13.6923 21.0036 13.3565 21.0036 12.9423C21.0036 12.528 20.6678 12.1923 20.2536 12.1923H12.7518V4.69043Z" fill="#212121"/>
</svg>
