<svg width="24" height="25" viewBox="0 0 24 25" fill="none" xmlns="http://www.w3.org/2000/svg">
<path d="M21.5586 12.0575C21.5604 12.0575 21.5617 12.0575 21.5634 12.0575C21.6852 12.0575 21.8014 12.0064 21.8839 11.9169C21.9677 11.8261 22.0092 11.7043 21.9983 11.5812C21.5599 6.75998 17.7429 2.94159 12.9212 2.50238C12.7989 2.49278 12.6758 2.53251 12.585 2.61677C12.4942 2.70059 12.4436 2.81891 12.4449 2.94246C12.5208 9.34981 13.3661 11.968 21.5586 12.0575ZM21.5586 12.9429C13.3661 13.0324 12.5213 15.6506 12.4453 22.058C12.444 22.1815 12.4946 22.2999 12.5855 22.3837C12.6667 22.4583 12.7728 22.4998 12.8819 22.4998C12.895 22.4998 12.9085 22.4994 12.9216 22.4981C17.7433 22.0589 21.5604 18.2409 21.9983 13.4192C22.0092 13.2961 21.9681 13.1743 21.8839 13.0835C21.7996 12.9927 21.6822 12.9477 21.5586 12.9429ZM11.0495 2.50457C6.24316 2.95643 2.4383 6.77395 2.00215 11.5821C1.99124 11.7052 2.03228 11.827 2.11654 11.9178C2.19905 12.0073 2.31562 12.058 2.43699 12.058C2.43874 12.058 2.44049 12.058 2.44223 12.058C10.6077 11.9641 11.4508 9.34719 11.5276 2.94421C11.5289 2.82066 11.4778 2.7019 11.387 2.61808C11.2953 2.53425 11.1727 2.49322 11.0495 2.50457ZM2.4418 12.9425C2.30602 12.9272 2.19949 12.9918 2.1161 13.0826C2.03228 13.1734 1.9908 13.2952 2.00172 13.4184C2.43787 18.2265 6.24316 22.044 11.0495 22.4959C11.0631 22.4972 11.077 22.4976 11.0906 22.4976C11.1997 22.4976 11.3054 22.4566 11.3866 22.3819C11.4774 22.2981 11.5285 22.1794 11.5272 22.0558C11.4503 15.6533 10.6077 13.0364 2.4418 12.9425Z" fill="white"/>
</svg>
