<svg width="24" height="25" viewBox="0 0 24 25" fill="none" xmlns="http://www.w3.org/2000/svg">
<path d="M11.9854 12.841C9.16041 12.841 6.81241 10.495 6.81241 7.719C6.81241 4.847 9.16041 2.5 11.9864 2.5C14.9084 2.5 17.1594 4.846 17.1594 7.719C17.1544 9.08205 16.6084 10.3873 15.6413 11.348C14.6743 12.3086 13.3655 12.846 12.0024 12.842L11.9854 12.841ZM11.9854 5.517C10.7894 5.517 9.87941 6.522 9.87941 7.72C9.87941 8.916 10.7894 9.826 11.9864 9.826C13.2314 9.826 14.0934 8.916 14.0934 7.72C14.0944 6.521 13.2314 5.517 11.9854 5.517ZM14.0454 17.103L16.9684 19.928C17.5434 20.549 17.5434 21.459 16.9684 22.034C16.3464 22.655 15.3874 22.655 14.9084 22.034L11.9864 19.161L9.16041 22.034C8.87341 22.321 8.48941 22.464 8.05741 22.464C7.72241 22.464 7.33941 22.32 7.00341 22.034C6.42841 21.459 6.42841 20.549 7.00341 19.927L9.97341 17.102C8.90085 16.7844 7.87195 16.3346 6.91041 15.763C6.19141 15.38 6.04841 14.423 6.43141 13.704C6.91041 12.986 7.77241 12.795 8.53941 13.274C9.57801 13.9078 10.7712 14.2431 11.9879 14.2431C13.2046 14.2431 14.3978 13.9078 15.4364 13.274C16.2034 12.795 17.1124 12.986 17.5434 13.704C17.9754 14.423 17.7824 15.379 17.1114 15.763C16.2024 16.338 15.1484 16.769 14.0464 17.104L14.0454 17.103Z" fill="white"/>
</svg>
