<svg width="24" height="25" viewBox="0 0 24 25" fill="none" xmlns="http://www.w3.org/2000/svg">
<path d="M22.5525 6.92123C22.4273 6.45677 22.1826 6.0332 21.8428 5.69267C21.503 5.35214 21.0799 5.10653 20.6156 4.9803C18.8942 4.5077 12.0076 4.50001 12.0076 4.50001C12.0076 4.50001 5.12209 4.49231 3.3996 4.94403C2.93565 5.07607 2.51343 5.32515 2.17349 5.66735C1.83355 6.00955 1.5873 6.43338 1.45838 6.89815C1.0044 8.61927 1 12.189 1 12.189C1 12.189 0.995605 15.7763 1.44629 17.4799C1.69911 18.4218 2.44108 19.1658 3.38422 19.4197C5.12319 19.8923 11.9911 19.9 11.9911 19.9C11.9911 19.9 18.8778 19.9077 20.5991 19.4571C21.0636 19.3311 21.487 19.086 21.8277 18.7462C22.1683 18.4063 22.4144 17.9835 22.5415 17.5194C22.9965 15.7994 22.9998 12.2308 22.9998 12.2308C22.9998 12.2308 23.0218 8.64235 22.5525 6.92123ZM9.80477 15.4961L9.81027 8.90173L15.5339 12.2044L9.80477 15.4961Z" fill="white"/>
</svg>
